# xmcd CD database file
#
# Track frame offsets:
#	150
#	15325
#	27795
#	38950
#	39748
#	51363
#	55663
#	70550
#	71278
#	80035
#	80828
#	94175
#	97523
#	112345
#	122410
#	132455
#	138243
#	148290
#	149175
#	160290
#	173610
#	184905
#	192210
#	198755
#	199528
#	211198
#	212310
#
# Disc length: 2971 seconds
#
# Revision: 3
# Processed by: cddbd v1.5.2PL0 Copyright (c) Steve Scherf et al.
# Submitted via: CDex 1.51
#
DISCID=810b991b
DTITLE=Jope Ruonansuu - Presidentiksi
DYEAR=1993
DGENRE=Humour
TTITLE0=Maha
TTITLE1=T‰‰ll‰ Aarne Tanninen
TTITLE2=Lupaan kaiken
TTITLE3=Pikku hiivassa kautta maan
TTITLE4=It's my wife
TTITLE5=Jopen vaalitoimisto 1.
TTITLE6=Jasser Arafat
TTITLE7=T‰n‰‰n t‰m‰
TTITLE8=Galluppi
TTITLE9=Se raavaampi lappilainen
TTITLE10=Musta hevoinen
TTITLE11=Postipekan haarakonttori
TTITLE12=Juodaan vodkaa
TTITLE13=Teijan keittiˆ
TTITLE14=Ritke vorresteri
TTITLE15=Teijan keittiˆ jatkuu
TTITLE16=Ryvetyt‰‰n j‰tk‰t me kunnolla
TTITLE17=Kun olet p‰‰tt‰nyt
TTITLE18=My name is K‰‰ri‰inen
TTITLE19=Manun puhe
TTITLE20=Suomi valmiina nousuun
TTITLE21=Jopen vaalitoimisto 2.
TTITLE22=Kaiken takana (on piilossa)
TTITLE23=120 kg:n varmuudella
TTITLE24=P‰in sein‰‰
TTITLE25=Is‰ meid‰n
TTITLE26=Paavo kaahaa
EXTD=YEAR: 1993
EXTT0=
EXTT1=
EXTT2=
EXTT3=
EXTT4=
EXTT5=
EXTT6=
EXTT7=
EXTT8=
EXTT9=
EXTT10=
EXTT11=
EXTT12=
EXTT13=
EXTT14=
EXTT15=
EXTT16=
EXTT17=
EXTT18=
EXTT19=
EXTT20=
EXTT21=
EXTT22=
EXTT23=
EXTT24=
EXTT25=
EXTT26=
PLAYORDER=
